<svg xmlns="http://www.w3.org/2000/svg" version="1.1" xmlns:xlink="http://www.w3.org/1999/xlink" xmlns:svgjs="http://svgjs.dev/svgjs" width="1000" height="202" viewBox="0 0 1000 202"><g transform="matrix(1,0,0,1,-0.6060606060606233,0.3055520225061059)"><svg viewBox="0 0 396 80" data-background-color="#0080ff" preserveAspectRatio="xMidYMid meet" height="202" width="1000" xmlns="http://www.w3.org/2000/svg" xmlns:xlink="http://www.w3.org/1999/xlink"><g id="tight-bounds" transform="matrix(1,0,0,1,0.2400000000000091,-0.12101070198261255)"><svg viewBox="0 0 395.52 80.24197847691799" height="80.24197847691799" width="395.52"><g><svg viewBox="0 0 518.7372410578766 105.23994369979258" height="80.24197847691799" width="395.52"><g transform="matrix(1,0,0,1,123.21724105787669,14.54473896285122)"><svg viewBox="0 0 395.52 76.15046577409014" height="76.15046577409014" width="395.52"><g><svg viewBox="0 0 395.52 76.15046577409014" height="76.15046577409014" width="395.52"><g><svg viewBox="0 0 395.52 76.15046577409014" height="76.15046577409014" width="395.52"><g transform="matrix(1,0,0,1,0,0)"><svg width="395.52" viewBox="7.079999923706055 -36.88999938964844 258.9200134277344 49.849998474121094" height="76.15046577409014" data-palette-color="#ffffff"><path d="M7.08 0L7.08-34.69 14.55-34.69 26.07-14.77 37.77-34.69 44.87-34.69 44.87 0 38.72 0 38.72-25.95 28.86-9.94 23.05-9.94 13.23-25.95 13.23 0 7.08 0ZM62.55 0.2L51.22-24.12 58.1-24.12 66.04-5.59 73.26-24.12 79.59-24.12 63.91 12.96 56.59 12.96 62.55 0.2ZM119.06-19.31L119.06-5.03Q114.01 0.49 104.61 0.49L104.61 0.49Q100.61 0.49 97.3-0.55 93.99-1.59 91.77-3.31 89.55-5.03 88.02-7.35 86.49-9.67 85.81-12.17 85.13-14.67 85.13-17.31L85.13-17.31Q85.13-20.07 85.88-22.63 86.64-25.2 88.24-27.44 89.84-29.69 92.1-31.36 94.36-33.03 97.55-34 100.75-34.96 104.54-34.96L104.54-34.96Q111.45-34.96 116.96-31.88L116.96-31.88 117.82-31.4 115.25-26.56 114.37-27.03Q112.64-27.91 110.03-28.6 107.42-29.3 104.78-29.3L104.78-29.3Q102.19-29.3 99.78-28.49 97.36-27.69 95.47-26.22 93.57-24.76 92.44-22.5 91.3-20.24 91.3-17.55L91.3-17.55Q91.3-14.01 93.16-11.18 95.01-8.35 98.3-6.77 101.58-5.2 105.68-5.2L105.68-5.2Q110.18-5.2 113.03-7.23L113.03-7.23 113.03-13.89 102.17-13.89 102.17-19.31 119.06-19.31ZM131.12-24.12L131.83-22.83Q135.64-24.58 139.96-24.58L139.96-24.58Q142.72-24.58 144.99-23.54L144.99-23.54 145.84-23.14 143.94-18.14 142.99-18.51Q141.28-19.17 139.27-19.17L139.27-19.17Q136.08-19.17 133.12-18.02L133.12-18.02 133.12 0 127.12 0 127.12-24.12 131.12-24.12ZM160.41-24.58L160.41-24.58Q163.05-24.58 165.04-24.11 167.03-23.63 168.25-22.85 169.47-22.07 170.23-20.9 170.99-19.73 171.27-18.52 171.55-17.31 171.55-15.82L171.55-15.82 171.55 0 167.06 0 166.37-1.59Q163.12 0.49 158.97 0.49L158.97 0.49Q154.46 0.49 151.65-1.64 148.84-3.76 148.84-6.67L148.84-6.67Q148.84-8.47 149.76-9.81 150.67-11.16 152.16-11.96 153.65-12.77 155.9-13.28 158.14-13.79 160.4-13.99 162.66-14.18 165.52-14.21L165.52-14.21 165.52-15.04Q165.52-15.97 165.36-16.58 165.2-17.19 164.66-17.87 164.13-18.55 162.87-18.91 161.61-19.26 159.66-19.26L159.66-19.26Q156.92-19.26 152.41-18.19L152.41-18.19 151.43-17.92 150.19-22.73 151.04-23.02Q155.56-24.58 160.41-24.58ZM165.52-6.23L165.52-6.23 165.52-9.67 164.93-9.67Q160-9.67 157.59-9.08 155.19-8.5 155.19-7.1L155.19-7.1Q155.19-6.23 156.66-5.44 158.12-4.66 160.24-4.66L160.24-4.66Q163.25-4.66 165.52-6.23ZM179.11-11.67L179.11-11.67Q179.11-17.87 182.79-21.24 186.46-24.61 192.61-24.61L192.61-24.61Q195.47-24.61 198.3-23.78L198.3-23.78 198.3-36.89 204.31-36.89 204.31 0 199.87 0 199.38-1.12Q195.84 0.49 191.81 0.49L191.81 0.49Q189.9 0.49 188.15 0.11 186.39-0.27 184.72-1.17 183.04-2.08 181.82-3.43 180.6-4.79 179.86-6.91 179.11-9.03 179.11-11.67ZM193.35-4.81L193.35-4.81Q195.89-4.81 198.3-5.66L198.3-5.66 198.3-18.73Q195.72-19.46 193.3-19.46L193.3-19.46Q192.2-19.46 191.17-19.3 190.15-19.14 188.99-18.66 187.83-18.19 186.99-17.43 186.14-16.67 185.58-15.33 185.02-13.99 185.02-12.26L185.02-12.26Q185.02-10.5 185.57-9.13 186.12-7.76 186.97-6.97 187.83-6.18 188.99-5.66 190.15-5.15 191.2-4.98 192.25-4.81 193.35-4.81ZM226.08-24.58L226.08-24.58Q228.18-24.58 229.86-24.13 231.53-23.68 232.61-22.99 233.7-22.29 234.49-21.18 235.29-20.07 235.7-19.06 236.12-18.04 236.35-16.63 236.58-15.21 236.63-14.23 236.68-13.26 236.68-11.91L236.68-11.91 236.68-9.18 218.54-9.18Q219.05-7.37 221.44-6.04 223.84-4.71 227.74-4.71L227.74-4.71Q230.5-4.71 233.36-5.54L233.36-5.54 234.36-5.83 235.56-1.2 234.68-0.9Q230.6 0.49 225.99 0.49L225.99 0.49Q222.76 0.49 220.27-0.22 217.78-0.93 216.28-2.05 214.78-3.17 213.82-4.76 212.85-6.35 212.49-7.93 212.12-9.52 212.12-11.33L212.12-11.33Q212.12-14.01 212.89-16.25 213.66-18.48 214.99-20.01 216.32-21.53 218.11-22.58 219.91-23.63 221.91-24.11 223.91-24.58 226.08-24.58ZM225.08-19.12L225.08-19.12Q222.28-19.12 220.59-17.71 218.91-16.31 218.59-14.21L218.59-14.21 230.77-14.21Q230.58-16.85 229.11-17.98 227.65-19.12 225.08-19.12ZM259.55-7.2L259.55-7.2Q259.5-7.81 258.61-8.28 257.72-8.74 256.33-9.11 254.94-9.47 253.28-9.86 251.62-10.25 249.97-10.83 248.32-11.4 246.96-12.17 245.59-12.94 244.73-14.2 243.88-15.45 243.88-17.07L243.88-17.07Q243.88-18.02 244.23-18.98 244.59-19.95 245.51-20.98 246.44-22.02 247.86-22.8 249.27-23.58 251.64-24.08 254.01-24.58 256.99-24.58L256.99-24.58Q258.75-24.58 260.16-24.4 261.58-24.22 262.17-24.07 262.75-23.93 263.95-23.56L263.95-23.56 264.95-23.27 263.29-18.33 262.36-18.58Q259.19-19.46 256.18-19.46L256.18-19.46Q254.67-19.46 253.52-19.25 252.38-19.04 251.78-18.76 251.18-18.48 250.81-18.1 250.45-17.72 250.35-17.47 250.25-17.21 250.25-16.99L250.25-16.99Q250.25-16.43 251.12-15.97 251.98-15.5 253.38-15.12 254.77-14.75 256.44-14.32 258.11-13.89 259.8-13.28 261.48-12.67 262.87-11.89 264.26-11.11 265.13-9.89 266-8.67 266-7.15L266-7.15Q266-6.1 265.69-5.13 265.39-4.15 264.52-3.1 263.65-2.05 262.29-1.28 260.92-0.51 258.6-0.01 256.28 0.49 253.28 0.49L253.28 0.49Q248.59 0.49 243.93-1.42L243.93-1.42 243.02-1.78 244.83-6.67 245.76-6.3Q250.13-4.66 253.5-4.66L253.5-4.66Q256.62-4.66 258.09-5.29 259.55-5.91 259.55-7.2Z" opacity="1" transform="matrix(1,0,0,1,0,0)" fill="#ffffff" class="undefined-text-0" data-fill-palette-color="primary" id="text-0"></path></svg></g></svg></g></svg></g></svg></g><g><svg viewBox="0 0 105.23994369979259 105.23994369979258" height="105.23994369979258" width="105.23994369979259"><g><svg></svg></g><g id="icon-0"><svg viewBox="0 0 105.23994369979259 105.23994369979258" height="105.23994369979258" width="105.23994369979259"><g><path xmlns="http://www.w3.org/2000/svg" d="M31.572 105.24c-17.437 0-31.572-14.135-31.572-31.572v-42.096c0-17.437 14.135-31.572 31.572-31.572h42.096c17.437 0 31.572 14.135 31.572 31.572v42.096c0 17.437-14.135 31.572-31.572 31.572z" fill="#ffffff" fill-rule="nonzero" stroke="none" stroke-width="1" stroke-linecap="butt" stroke-linejoin="miter" stroke-miterlimit="10" stroke-dasharray="" stroke-dashoffset="0" font-family="none" font-weight="none" font-size="none" text-anchor="none" style="mix-blend-mode: normal" data-fill-palette-color="accent"></path></g><g transform="matrix(1,0,0,1,14.733111049896301,29.336447127049624)"><svg viewBox="0 0 75.77372159999999 46.56704944569333" height="46.56704944569333" width="75.77372159999999"><g><svg xmlns="http://www.w3.org/2000/svg" data-name="Layer 1" viewBox="2.430551767349243 20.79190444946289 95.1390609741211 58.46809768676758" x="0" y="0" height="46.56704944569333" width="75.77372159999999" class="icon-c-0" data-fill-palette-color="quaternary" id="c-0"><path d="M62.78 23l32 55.42 1.3-2.26h-64l1.3 2.26L65.37 23a1.5 1.5 0 0 0-2.59-1.51L30.79 77a1.51 1.51 0 0 0 1.3 2.26h64A1.51 1.51 0 0 0 97.37 77l-32-55.42A1.5 1.5 0 0 0 62.78 23Z" fill="#0080ff" data-fill-palette-color="quaternary"></path><path d="M34.63 23l32 55.42 1.3-2.26h-64l1.3 2.26L37.22 23a1.5 1.5 0 0 0-2.59-1.51L2.63 77a1.51 1.51 0 0 0 1.3 2.26h64A1.51 1.51 0 0 0 69.21 77l-32-55.42A1.5 1.5 0 0 0 34.63 23Z" fill="#0080ff" data-fill-palette-color="quaternary"></path></svg></g></svg></g></svg></g></svg></g></svg></g><defs></defs></svg><rect width="395.52" height="80.24197847691799" fill="none" stroke="none" visibility="hidden"></rect></g></svg></g></svg>